 <svg  version="1.0" xmlns="http://www.w3.org/2000/svg"  width="300.000000pt" height="300.000000pt" viewBox="0 0 300.000000 300.000000"  preserveAspectRatio="xMidYMid meet">  <g transform="translate(0.000000,300.000000) scale(0.100000,-0.100000)" fill="#ffffff" stroke="none"> <path d="M1624 2334 c-4 -10 -24 -60 -45 -111 -22 -51 -39 -95 -39 -98 0 -4 9 -3 20 0 20 6 20 2 20 -481 l0 -488 55 55 55 54 0 432 c0 426 0 431 20 426 11 -3 20 -1 20 4 0 9 -89 215 -96 222 -2 2 -7 -5 -10 -15z m40 -125 c17 -34 18 -45 8 -73 -9 -23 -12 -151 -12 -437 0 -324 -3 -409 -13 -424 -34 -46 -37 -12 -37 420 0 272 -4 426 -10 430 -5 3 -10 14 -10 23 0 28 32 102 44 102 6 0 20 -18 30 -41z"/> <path d="M1341 1957 c-24 -56 -46 -108 -49 -116 -4 -10 0 -13 16 -9 l22 6 0 -401 1 -402 83 -87 82 -87 359 359 c198 198 361 358 363 356 2 -2 -1 -28 -6 -57 -6 -30 -8 -56 -6 -58 11 -11 26 23 59 131 19 64 38 123 41 131 4 10 -36 -3 -116 -39 -67 -30 -126 -54 -133 -54 -8 0 -8 -3 -1 -10 7 -7 25 -8 52 -1 23 5 42 6 42 3 0 -3 -146 -150 -325 -327 l-325 -321 -27 30 -28 31 3 403 2 403 22 -7 c15 -5 20 -3 15 7 -32 78 -91 206 -96 211 -4 5 -26 -38 -50 -95z m78 -43 c16 -34 18 -51 11 -65 -11 -19 -22 -758 -13 -810 3 -15 18 -41 35 -59 24 -27 34 -31 58 -26 32 6 38 -2 18 -22 -21 -21 -36 -13 -98 48 l-60 60 -1 112 c-2 468 -8 680 -19 693 -19 23 14 115 41 115 4 0 17 -21 28 -46z m826 -271 c-8 -34 -23 -53 -42 -53 -7 0 -26 -8 -41 -17 l-27 -17 20 23 c11 13 19 25 18 27 -11 16 2 36 30 48 46 20 50 19 42 -11z"/> <path d="M1836 1892 c-25 -59 -46 -110 -46 -114 0 -5 9 -8 21 -8 20 0 20 -4 19 -172 -1 -95 -1 -177 -1 -182 1 -5 26 15 56 45 l55 54 0 128 c0 120 1 127 20 127 11 0 20 1 20 3 0 1 -22 52 -49 114 l-48 112 -47 -107z m74 -39 c16 -38 19 -53 11 -71 -6 -13 -11 -72 -11 -132 0 -98 -2 -112 -21 -131 -11 -11 -23 -18 -26 -16 -3 3 -5 60 -4 127 0 70 -5 132 -11 146 -12 25 1 82 24 112 15 17 15 17 38 -35z"/> <path d="M1097 1662 c-26 -59 -47 -110 -47 -114 0 -3 9 -4 20 -1 20 5 20 0 20 -266 0 -179 -4 -279 -11 -293 -10 -19 -14 -17 -70 38 l-59 58 0 88 c0 87 0 88 25 88 26 0 31 9 17 26 -5 5 -26 50 -46 99 -21 50 -41 93 -45 97 -4 5 -26 -38 -49 -95 -24 -56 -45 -108 -49 -114 -3 -8 3 -13 16 -13 20 0 21 -5 21 -88 l0 -87 113 -113 112 -112 68 68 67 68 0 278 c0 273 0 278 20 273 11 -3 20 -2 20 3 0 9 -85 209 -92 215 -2 3 -26 -43 -51 -103z m77 -33 c17 -34 18 -45 8 -73 -8 -22 -12 -116 -12 -287 l0 -255 -51 -49 c-40 -38 -54 -47 -67 -39 -27 18 -24 31 6 26 22 -3 32 2 45 22 15 22 17 59 17 287 1 173 -3 272 -11 293 -10 27 -8 38 10 74 12 23 25 42 29 42 4 0 16 -18 26 -41z m-244 -289 c16 -40 16 -48 3 -79 -11 -26 -14 -61 -11 -124 l4 -88 -24 25 c-21 20 -25 35 -27 96 -2 39 -8 84 -15 99 -9 22 -7 36 10 75 11 26 25 46 31 44 7 -2 20 -24 29 -48z"/> <path d="M700 1092 c0 -14 476 -483 483 -475 8 7 -461 483 -475 483 -5 0 -8 -3 -8 -8z"/> </g> </svg> 